<?xml version="1.0" encoding="UTF-8"?>
<svg width="77px" height="22px" viewBox="0 0 77 22" version="1.1" xmlns="http://www.w3.org/2000/svg" xmlns:xlink="http://www.w3.org/1999/xlink">
    <!-- Generator: Sketch 55.2 (78181) - https://sketchapp.com -->
    <title>logo</title>
    <desc>Created with Sketch.</desc>
    <g id="Page-1" stroke="none" stroke-width="1" fill="none" fill-rule="evenodd">
        <g id="logo" fill="#FFFFFF" fill-rule="nonzero">
            <path d="M3.518124,7.341151 C3.987207,5.769723 5.558635,5.01919 7.036247,5.01919 L7.036247,9.006397 C5.58209,8.771855 3.518124,9.358209 3.518124,11.680171 L3.518124,16.98081 L0,16.98081 L0,5.253731 L3.518124,5.253731 L3.518124,7.341151 Z M13.017058,17.309168 C9.569296,17.309168 6.801706,14.61194 6.801706,11.117271 C6.801706,7.622601 9.569296,4.925373 13.017058,4.925373 C16.464819,4.925373 19.232409,7.622601 19.232409,11.117271 C19.232409,14.61194 16.464819,17.309168 13.017058,17.309168 Z M13.017058,13.884861 C14.541578,13.884861 15.714286,12.782516 15.714286,11.117271 C15.714286,9.452026 14.541578,8.34968 13.017058,8.34968 C11.492537,8.34968 10.319829,9.452026 10.319829,11.117271 C10.319829,12.782516 11.492537,13.884861 13.017058,13.884861 Z M28.801706,0.5629 L32.319829,0.5629 L32.319829,16.98081 L28.801706,16.98081 L28.801706,15.878465 C28.027719,16.769723 26.878465,17.309168 25.307036,17.309168 C22.234542,17.309168 19.701493,14.61194 19.701493,11.117271 C19.701493,7.622601 22.234542,4.925373 25.307036,4.925373 C26.878465,4.925373 28.027719,5.464819 28.801706,6.356077 L28.801706,0.5629 Z M26.010661,13.978678 C27.628998,13.978678 28.801706,12.876333 28.801706,11.117271 C28.801706,9.358209 27.628998,8.255864 26.010661,8.255864 C24.392324,8.255864 23.219616,9.358209 23.219616,11.117271 C23.219616,12.876333 24.392324,13.978678 26.010661,13.978678 Z M37.479744,7.341151 C37.948827,5.769723 39.520256,5.01919 40.997868,5.01919 L40.997868,9.006397 C39.54371,8.771855 37.479744,9.358209 37.479744,11.680171 L37.479744,16.98081 L33.96162,16.98081 L33.96162,5.253731 L37.479744,5.253731 L37.479744,7.341151 Z M43.460554,4.221748 C42.311301,4.221748 41.34968,3.260128 41.34968,2.110874 C41.34968,0.96162 42.311301,0 43.460554,0 C44.609808,0 45.571429,0.96162 45.571429,2.110874 C45.571429,3.260128 44.609808,4.221748 43.460554,4.221748 Z M41.701493,16.98081 L41.701493,5.253731 L45.219616,5.253731 L45.219616,16.98081 L41.701493,16.98081 Z M55.469083,5.253731 L58.89339,5.253731 L58.89339,16.394456 C58.89339,20.334755 55.820896,22 52.701493,22 C50.26226,22 48.221748,21.085288 47.142857,19.162047 L50.144989,17.426439 C50.590618,18.247335 51.270789,18.904051 52.818763,18.904051 C54.460554,18.904051 55.469083,18.059701 55.469083,16.394456 L55.469083,15.315565 C54.695096,16.277186 53.569296,16.840085 52.044776,16.840085 C48.714286,16.840085 46.275053,14.119403 46.275053,10.882729 C46.275053,7.646055 48.714286,4.925373 52.044776,4.925373 C53.569296,4.925373 54.695096,5.488273 55.469083,6.449893 L55.469083,5.253731 Z M52.63113,13.603412 C54.296375,13.603412 55.469083,12.501066 55.469083,10.882729 C55.469083,9.264392 54.296375,8.162047 52.63113,8.162047 C50.965885,8.162047 49.793177,9.264392 49.793177,10.882729 C49.793177,12.501066 50.965885,13.603412 52.63113,13.603412 Z M66.164179,17.309168 C62.716418,17.309168 59.948827,14.61194 59.948827,11.117271 C59.948827,7.622601 62.716418,4.925373 66.164179,4.925373 C69.61194,4.925373 72.379531,7.622601 72.379531,11.117271 C72.379531,14.61194 69.61194,17.309168 66.164179,17.309168 Z M66.164179,13.884861 C67.688699,13.884861 68.861407,12.782516 68.861407,11.117271 C68.861407,9.452026 67.688699,8.34968 66.164179,8.34968 C64.639659,8.34968 63.466951,9.452026 63.466951,11.117271 C63.466951,12.782516 64.639659,13.884861 66.164179,13.884861 Z M74.490405,17.309168 C73.270789,17.309168 72.26226,16.30064 72.26226,15.081023 C72.26226,13.861407 73.270789,12.852878 74.490405,12.852878 C75.710021,12.852878 76.71855,13.861407 76.71855,15.081023 C76.71855,16.30064 75.710021,17.309168 74.490405,17.309168 Z" id="rodrigo."></path>
        </g>
    </g>
</svg>