<?xml version="1.0" encoding="UTF-8"?>
<svg width="78px" height="22px" viewBox="0 0 78 22" version="1.1" xmlns="http://www.w3.org/2000/svg" xmlns:xlink="http://www.w3.org/1999/xlink">
    <!-- Generator: Sketch 55.2 (78181) - https://sketchapp.com -->
    <title>rodrigo.</title>
    <desc>Created with Sketch.</desc>
    <g id="Page-1" stroke="none" stroke-width="1" fill="none" fill-rule="evenodd">
        <path d="M0.403,17 L0.403,5.5 L3.853,5.5 L4.014,7.984 C4.30533479,7.12532904 4.73849713,6.45833571 5.3135,5.983 C5.88850288,5.50766429 6.62066222,5.27 7.51,5.27 C7.80133479,5.27 8.05049896,5.29299977 8.2575,5.339 C8.46450103,5.38500023 8.62933272,5.44633295 8.752,5.523 L8.361,8.743 C8.2076659,8.68166636 8.01216785,8.63183352 7.7745,8.5935 C7.53683214,8.55516648 7.24933502,8.536 6.912,8.536 C6.4519977,8.536 6.02266866,8.63566567 5.624,8.835 C5.22533134,9.03433433 4.90716786,9.32949805 4.6695,9.7205 C4.43183214,10.111502 4.313,10.605997 4.313,11.204 L4.313,17 L0.403,17 Z M14.479,5.27 C15.6903394,5.27 16.7521621,5.503831 17.6645,5.9715 C18.5768379,6.43916901 19.2898308,7.12149551 19.8035,8.0185 C20.3171692,8.91550448 20.574,9.99266038 20.574,11.25 C20.574,12.5073396 20.3171692,13.5844955 19.8035,14.4815 C19.2898308,15.3785045 18.5768379,16.060831 17.6645,16.5285 C16.7521621,16.996169 15.6903394,17.23 14.479,17.23 C13.2983274,17.23 12.2480046,16.996169 11.328,16.5285 C10.4079954,16.060831 9.69116923,15.3785045 9.1775,14.4815 C8.66383076,13.5844955 8.407,12.5073396 8.407,11.25 C8.407,9.99266038 8.66383076,8.91550448 9.1775,8.0185 C9.69116923,7.12149551 10.4079954,6.43916901 11.328,5.9715 C12.2480046,5.503831 13.2983274,5.27 14.479,5.27 Z M14.479,8.053 C14.0343311,8.053 13.6510016,8.16033226 13.329,8.375 C13.0069984,8.58966774 12.7616675,8.93466429 12.593,9.41 C12.4243325,9.88533571 12.34,10.4986629 12.34,11.25 C12.34,12.0013371 12.4243325,12.610831 12.593,13.0785 C12.7616675,13.546169 13.0069984,13.8911656 13.329,14.1135 C13.6510016,14.3358344 14.0343311,14.447 14.479,14.447 C14.9390023,14.447 15.3299984,14.3358344 15.652,14.1135 C15.9740016,13.8911656 16.2193325,13.546169 16.388,13.0785 C16.5566675,12.610831 16.641,12.0013371 16.641,11.25 C16.641,10.4986629 16.5566675,9.88533571 16.388,9.41 C16.2193325,8.93466429 15.9740016,8.58966774 15.652,8.375 C15.3299984,8.16033226 14.9390023,8.053 14.479,8.053 Z M29.337,7.46939349 L29.337,0.624 L33.247,0.624 L33.247,17 L29.751,17 L29.6075711,14.7833719 C29.508991,15.0138741 29.3919674,15.2314165 29.2565,15.436 C28.8808315,16.0033362 28.4055029,16.4441651 27.8305,16.7585 C27.2554971,17.0728349 26.6000037,17.23 25.864,17.23 C24.9133286,17.23 24.0815036,16.996169 23.3685,16.5285 C22.6554964,16.060831 22.103502,15.3823378 21.7125,14.493 C21.321498,13.6036622 21.126,12.5380062 21.126,11.296 C21.126,10.0079936 21.3291646,8.91933778 21.7355,8.03 C22.1418354,7.14066222 22.709163,6.45833571 23.4375,5.983 C24.165837,5.50766429 25.0053286,5.27 25.956,5.27 C26.9986719,5.27 27.8381635,5.58816348 28.4745,6.2245 C28.8343135,6.58431349 29.1218127,6.99927652 29.337,7.46939349 L29.337,7.46939349 Z M27.221,14.355 C27.6656689,14.355 28.0451651,14.2361679 28.3595,13.9985 C28.6738349,13.7608321 28.9153325,13.4043357 29.084,12.929 C29.2526675,12.4536643 29.337,11.8710034 29.337,11.181 C29.337,10.5369968 29.2565008,9.98883559 29.0955,9.5365 C28.9344992,9.08416441 28.6968349,8.73916786 28.3825,8.5015 C28.0681651,8.26383215 27.6886689,8.145 27.244,8.145 C26.56933,8.145 26.036502,8.39416418 25.6455,8.8925 C25.254498,9.39083582 25.059,10.1766613 25.059,11.25 C25.059,12.3233387 25.2506647,13.1091642 25.634,13.6075 C26.0173353,14.1058358 26.54633,14.355 27.221,14.355 Z M34.903,17 L34.903,5.5 L38.353,5.5 L38.514,7.984 C38.8053348,7.12532904 39.2384971,6.45833571 39.8135,5.983 C40.3885029,5.50766429 41.1206622,5.27 42.01,5.27 C42.3013348,5.27 42.550499,5.29299977 42.7575,5.339 C42.964501,5.38500023 43.1293327,5.44633295 43.252,5.523 L42.861,8.743 C42.7076659,8.68166636 42.5121679,8.63183352 42.2745,8.5935 C42.0368321,8.55516648 41.749335,8.536 41.412,8.536 C40.9519977,8.536 40.5226687,8.63566567 40.124,8.835 C39.7253313,9.03433433 39.4071679,9.32949805 39.1695,9.7205 C38.9318321,10.111502 38.813,10.605997 38.813,11.204 L38.813,17 L34.903,17 Z M45.598,4.166 C44.8006627,4.166 44.2218351,4.01650149 43.8615,3.7175 C43.5011649,3.4184985 43.321,2.94700322 43.321,2.303 C43.321,1.64366337 43.5011649,1.16450149 43.8615,0.8655 C44.2218351,0.566498505 44.8006627,0.417 45.598,0.417 C46.3800039,0.417 46.9549982,0.566498505 47.323,0.8655 C47.6910018,1.16450149 47.875,1.64366337 47.875,2.303 C47.875,2.94700322 47.6910018,3.4184985 47.323,3.7175 C46.9549982,4.01650149 46.3800039,4.166 45.598,4.166 Z M47.553,5.5 L47.553,17 L43.643,17 L43.643,5.5 L47.553,5.5 Z M60.318,2.418 L60.64,5.04 C60.5479995,5.00933318 60.4560005,4.99016671 60.364,4.9825 C60.2719995,4.97483329 60.1800005,4.971 60.088,4.971 C59.41333,4.971 58.9111683,5.13583168 58.5815,5.4655 C58.2518317,5.79516832 58.087,6.20533088 58.087,6.696 L56.707,6.19 C56.707,5.56133019 56.8219988,4.95566958 57.052,4.373 C57.2820011,3.79033042 57.6384976,3.31500184 58.1215,2.947 C58.6045024,2.57899816 59.2139963,2.395 59.95,2.395 L60.1225,2.395 C60.1915003,2.395 60.2566664,2.40266659 60.318,2.418 Z M50.4627743,16.9493665 C50.0645819,16.8058695 49.7386583,16.6157478 49.485,16.379 C49.0249977,15.9496645 48.795,15.3670037 48.795,14.631 C48.795,13.8949963 49.0863304,13.2970023 49.669,12.837 C50.2516696,12.3769977 51.0259952,12.1240002 51.992,12.078 L53.418,12.745 L53.05,12.745 C52.451997,12.7756668 52.0303346,12.8753325 51.785,13.044 C51.5396654,13.2126675 51.417,13.4196654 51.417,13.665 C51.417,13.925668 51.5243323,14.121166 51.739,14.2515 C51.9536677,14.381834 52.2756645,14.447 52.705,14.447 L56.362,14.447 C57.6960067,14.447 58.7194964,14.7268305 59.4325,15.2865 C60.1455036,15.8461695 60.502,16.6473281 60.502,17.69 C60.502,18.6406714 60.2413359,19.4303302 59.72,20.059 C59.1986641,20.6876698 58.4665047,21.1591651 57.5235,21.4735 C56.5804953,21.7878349 55.4650064,21.945 54.177,21.945 C52.0916562,21.945 50.5890046,21.6843359 49.669,21.163 C48.7489954,20.6416641 48.289,19.9363378 48.289,19.047 C48.289,18.4029968 48.5496641,17.8816687 49.071,17.483 C49.3986532,17.2324417 49.8625758,17.0545644 50.4627743,16.9493665 L50.4627743,16.9493665 Z M54.2,19.415 C54.9360037,19.415 55.5454976,19.3651672 56.0285,19.2655 C56.5115024,19.1658328 56.8756654,19.0278342 57.121,18.8515 C57.3663346,18.6751658 57.489,18.4720012 57.489,18.242 C57.489,18.0119989 57.4046675,17.831834 57.236,17.7015 C57.0673325,17.571166 56.7606689,17.506 56.316,17.506 L52.199,17.506 C51.9076652,17.506 51.6738342,17.5826659 51.4975,17.736 C51.3211658,17.8893341 51.233,18.0809989 51.233,18.311 C51.233,18.6636684 51.4936641,18.9358324 52.015,19.1275 C52.5363359,19.3191676 53.264662,19.415 54.2,19.415 Z M54.338,5.27 C55.5033392,5.27 56.4999959,5.4233318 57.328,5.73 C58.1560041,6.0366682 58.7884978,6.47749712 59.2255,7.0525 C59.6625022,7.62750288 59.881,8.33666245 59.881,9.18 C59.881,10.0080041 59.6625022,10.7133304 59.2255,11.296 C58.7884978,11.8786696 58.1560041,12.3194985 57.328,12.6185 C56.4999959,12.9175015 55.5033392,13.067 54.338,13.067 C52.5133242,13.067 51.1295047,12.72967 50.1865,12.055 C49.2434953,11.38033 48.772,10.4220062 48.772,9.18 C48.772,8.33666245 48.9904978,7.62750288 49.4275,7.0525 C49.8645022,6.47749712 50.4969959,6.0366682 51.325,5.73 C52.1530041,5.4233318 53.1573274,5.27 54.338,5.27 Z M54.338,7.501 C53.8319975,7.501 53.4218349,7.64666521 53.1075,7.938 C52.7931651,8.22933479 52.636,8.64333065 52.636,9.18 C52.636,9.70133594 52.7931651,10.1076652 53.1075,10.399 C53.4218349,10.6903348 53.8319975,10.836 54.338,10.836 C54.8286691,10.836 55.2349984,10.6903348 55.557,10.399 C55.8790016,10.1076652 56.04,9.70133594 56.04,9.18 C56.04,8.64333065 55.8790016,8.22933479 55.557,7.938 C55.2349984,7.64666521 54.8286691,7.501 54.338,7.501 Z M66.39,5.27 C67.6013394,5.27 68.6631621,5.503831 69.5755,5.9715 C70.4878379,6.43916901 71.2008308,7.12149551 71.7145,8.0185 C72.2281692,8.91550448 72.485,9.99266038 72.485,11.25 C72.485,12.5073396 72.2281692,13.5844955 71.7145,14.4815 C71.2008308,15.3785045 70.4878379,16.060831 69.5755,16.5285 C68.6631621,16.996169 67.6013394,17.23 66.39,17.23 C65.2093274,17.23 64.1590046,16.996169 63.239,16.5285 C62.3189954,16.060831 61.6021692,15.3785045 61.0885,14.4815 C60.5748308,13.5844955 60.318,12.5073396 60.318,11.25 C60.318,9.99266038 60.5748308,8.91550448 61.0885,8.0185 C61.6021692,7.12149551 62.3189954,6.43916901 63.239,5.9715 C64.1590046,5.503831 65.2093274,5.27 66.39,5.27 Z M66.39,8.053 C65.9453311,8.053 65.5620016,8.16033226 65.24,8.375 C64.9179984,8.58966774 64.6726675,8.93466429 64.504,9.41 C64.3353325,9.88533571 64.251,10.4986629 64.251,11.25 C64.251,12.0013371 64.3353325,12.610831 64.504,13.0785 C64.6726675,13.546169 64.9179984,13.8911656 65.24,14.1135 C65.5620016,14.3358344 65.9453311,14.447 66.39,14.447 C66.8500023,14.447 67.2409984,14.3358344 67.563,14.1135 C67.8850016,13.8911656 68.1303325,13.546169 68.299,13.0785 C68.4676675,12.610831 68.552,12.0013371 68.552,11.25 C68.552,10.4986629 68.4676675,9.88533571 68.299,9.41 C68.1303325,8.93466429 67.8850016,8.58966774 67.563,8.375 C67.2409984,8.16033226 66.8500023,8.053 66.39,8.053 Z M75.107,13.044 C75.8276703,13.044 76.3911646,13.2279982 76.7975,13.596 C77.2038354,13.9640018 77.407,14.4776634 77.407,15.137 C77.407,15.7810032 77.2038354,16.2869982 76.7975,16.655 C76.3911646,17.0230018 75.8276703,17.207 75.107,17.207 C74.4016631,17.207 73.8420021,17.0230018 73.428,16.655 C73.0139979,16.2869982 72.807,15.7810032 72.807,15.137 C72.807,14.4776634 73.0139979,13.9640018 73.428,13.596 C73.8420021,13.2279982 74.4016631,13.044 75.107,13.044 Z" id="rodrigo." fill="#E61428" fill-rule="nonzero"></path>
    </g>
</svg>