<?xml version="1.0" encoding="UTF-8"?>
<svg width="61px" height="18px" viewBox="0 0 61 18" version="1.1" xmlns="http://www.w3.org/2000/svg" xmlns:xlink="http://www.w3.org/1999/xlink">
    <!-- Generator: Sketch 55.2 (78181) - https://sketchapp.com -->
    <title>rodrigo.</title>
    <desc>Created with Sketch.</desc>
    <g id="Page-1" stroke="none" stroke-width="1" fill="none" fill-rule="evenodd">
        <path d="M0.403,13.338147 L0.403,4.37757348 L3.09117204,4.37757348 L3.21662007,6.31305735 C3.4436224,5.64399785 3.78113396,5.12428978 4.22916487,4.75391756 C4.67719579,4.38354534 5.24767993,4.19836201 5.94063441,4.19836201 C6.16763674,4.19836201 6.36178056,4.21628297 6.52307168,4.25212545 C6.68436281,4.28796792 6.81279642,4.33575717 6.90837634,4.39549462 L6.60371685,6.9044552 C6.48424194,6.85666523 6.33191371,6.81783647 6.1467276,6.78796774 C5.96154149,6.75809901 5.73752939,6.74316487 5.47468459,6.74316487 C5.11625986,6.74316487 4.78173513,6.8208224 4.47110036,6.97613978 C4.16046559,7.13145717 3.91255887,7.36144292 3.72737276,7.66610394 C3.54218665,7.97076496 3.44959498,8.35606577 3.44959498,8.82201792 L3.44959498,13.338147 L0.403,13.338147 Z M11.3707419,4.19836201 C12.3145937,4.19836201 13.1419451,4.38055851 13.8528208,4.74495699 C14.5636965,5.10935547 15.1192465,5.64101084 15.5194875,6.33993907 C15.9197284,7.03886729 16.1198459,7.87816595 16.1198459,8.85786022 C16.1198459,9.83755448 15.9197284,10.6768531 15.5194875,11.3757814 C15.1192465,12.0747096 14.5636965,12.606365 13.8528208,12.9707634 C13.1419451,13.3351619 12.3145937,13.5173584 11.3707419,13.5173584 C10.4507851,13.5173584 9.63239427,13.3351619 8.9155448,12.9707634 C8.19869534,12.606365 7.64015851,12.0747096 7.23991756,11.3757814 C6.83967661,10.6768531 6.63955914,9.83755448 6.63955914,8.85786022 C6.63955914,7.87816595 6.83967661,7.03886729 7.23991756,6.33993907 C7.64015851,5.64101084 8.19869534,5.10935547 8.9155448,4.74495699 C9.63239427,4.38055851 10.4507851,4.19836201 11.3707419,4.19836201 Z M11.3707419,6.36682079 C11.0242647,6.36682079 10.7255819,6.45045197 10.4746846,6.61771685 C10.2237873,6.78498172 10.0326303,7.05379624 9.90120789,7.42416846 C9.76978548,7.79454068 9.70407527,8.27243315 9.70407527,8.85786022 C9.70407527,9.44328728 9.76978548,9.91819292 9.90120789,10.2825914 C10.0326303,10.6469899 10.2237873,10.9158044 10.4746846,11.089043 C10.7255819,11.2622816 11.0242647,11.3488996 11.3707419,11.3488996 C11.7291667,11.3488996 12.0338231,11.2622816 12.2847204,11.089043 C12.5356177,10.9158044 12.7267747,10.6469899 12.8581971,10.2825914 C12.9896195,9.91819292 13.0553297,9.44328728 13.0553297,8.85786022 C13.0553297,8.27243315 12.9896195,7.79454068 12.8581971,7.42416846 C12.7267747,7.05379624 12.5356177,6.78498172 12.2847204,6.61771685 C12.0338231,6.45045197 11.7291667,6.36682079 11.3707419,6.36682079 Z M22.9478029,5.91208609 L22.9478029,0.578290323 L25.9943978,0.578290323 L25.9943978,13.338147 L23.2703835,13.338147 L23.1586266,11.610994 C23.0818149,11.7905968 22.9906324,11.9601015 22.8850789,12.119509 C22.5923653,12.5615661 22.2219987,12.9050513 21.7739677,13.1499749 C21.3259368,13.3948985 20.8151892,13.5173584 20.2417097,13.5173584 C19.5009652,13.5173584 18.8528236,13.3351619 18.2972652,12.9707634 C17.7417069,12.606365 17.3116037,12.0776964 17.0069427,11.3847419 C16.7022816,10.6917875 16.5499534,9.86144928 16.5499534,8.89370251 C16.5499534,7.89011326 16.7082553,7.04185412 17.0248638,6.34889964 C17.3414723,5.65594516 17.7835228,5.12428978 18.3510287,4.75391756 C18.9185345,4.38354534 19.5726498,4.19836201 20.3133943,4.19836201 C21.1258237,4.19836201 21.779939,4.44626873 22.2757599,4.94208961 C22.5561194,5.22244919 22.7801332,5.54578021 22.9478029,5.91208609 L22.9478029,5.91208609 Z M21.2990573,11.2772151 C21.6455346,11.2772151 21.9412306,11.1846234 22.1861541,10.9994373 C22.4310777,10.8142512 22.6192478,10.5364762 22.7506703,10.1661039 C22.8820927,9.79573172 22.9478029,9.34173387 22.9478029,8.80409677 C22.9478029,8.30230215 22.8850795,7.87518575 22.7596308,7.52273477 C22.6341822,7.17028378 22.4489988,6.90146927 22.2040753,6.71628315 C21.9591517,6.53109704 21.6634557,6.43850538 21.3169785,6.43850538 C20.7912889,6.43850538 20.3761198,6.63264919 20.0714588,7.02094265 C19.7667978,7.40923611 19.6144695,8.02153584 19.6144695,8.85786022 C19.6144695,9.69418459 19.7638109,10.3064843 20.0624982,10.6947778 C20.3611855,11.0830712 20.7733677,11.2772151 21.2990573,11.2772151 Z M27.2847204,13.338147 L27.2847204,4.37757348 L29.9728925,4.37757348 L30.0983405,6.31305735 C30.3253428,5.64399785 30.6628544,5.12428978 31.1108853,4.75391756 C31.5589162,4.38354534 32.1294004,4.19836201 32.8223548,4.19836201 C33.0493572,4.19836201 33.243501,4.21628297 33.4047921,4.25212545 C33.5660832,4.28796792 33.6945168,4.33575717 33.7900968,4.39549462 L33.4854373,6.9044552 C33.3659624,6.85666523 33.2136341,6.81783647 33.028448,6.78796774 C32.8432619,6.75809901 32.6192498,6.74316487 32.356405,6.74316487 C31.9979803,6.74316487 31.6634556,6.8208224 31.3528208,6.97613978 C31.042186,7.13145717 30.7942793,7.36144292 30.6090932,7.66610394 C30.4239071,7.97076496 30.3313154,8.35606577 30.3313154,8.82201792 L30.3313154,13.338147 L27.2847204,13.338147 Z M35.6180538,3.33814695 C34.9967842,3.33814695 34.5457732,3.22166066 34.2650072,2.98868459 C33.9842411,2.75570851 33.8438602,2.38832867 33.8438602,1.88653405 C33.8438602,1.37279194 33.9842411,0.999438441 34.2650072,0.766462366 C34.5457732,0.53348629 34.9967842,0.417 35.6180538,0.417 C36.2273758,0.417 36.6754,0.53348629 36.9621398,0.766462366 C37.2488796,0.999438441 37.3922473,1.37279194 37.3922473,1.88653405 C37.3922473,2.38832867 37.2488796,2.75570851 36.9621398,2.98868459 C36.6754,3.22166066 36.2273758,3.33814695 35.6180538,3.33814695 Z M37.1413513,4.37757348 L37.1413513,13.338147 L34.0947563,13.338147 L34.0947563,4.37757348 L37.1413513,4.37757348 Z M47.0875878,1.97613978 L47.3384839,4.01915054 C47.2667989,3.99525556 47.1951151,3.98032142 47.1234301,3.97434767 C47.0517452,3.96837392 46.9800613,3.9653871 46.9083763,3.9653871 C46.3826867,3.9653871 45.9914123,4.0938207 45.7345412,4.35069176 C45.4776702,4.60756281 45.3492366,4.92715341 45.3492366,5.30947312 L44.2739677,4.91520789 C44.2739677,4.42536075 44.3635726,3.95344194 44.5427849,3.49943728 C44.7219973,3.04543262 44.9997723,2.67506595 45.3761183,2.38832616 C45.7524642,2.10158638 46.2273699,1.95821864 46.8008495,1.95821864 L46.9352581,1.95821864 C46.9890218,1.95821864 47.0397978,1.96419229 47.0875878,1.97613978 Z M39.40859,13.2986943 C39.0983264,13.1868843 38.8443732,13.0387452 38.6467276,12.854276 C38.2883029,12.5197462 38.1090932,12.0657484 38.1090932,11.4922688 C38.1090932,10.9187892 38.3360921,10.4528441 38.7900968,10.0944194 C39.2441014,9.73599462 39.8474407,9.53886398 40.6001326,9.50302151 L41.7112437,10.0227348 L41.4245054,10.0227348 C40.9585532,10.0466297 40.6300022,10.1242873 40.4388423,10.2557097 C40.2476824,10.3871321 40.1521039,10.5484208 40.1521039,10.7395806 C40.1521039,10.942688 40.2357351,11.0950162 40.403,11.1965699 C40.5702649,11.2981236 40.8211584,11.3488996 41.1556882,11.3488996 L44.0051505,11.3488996 C45.0445823,11.3488996 45.8420653,11.5669381 46.3976237,12.0030215 C46.953182,12.4391049 47.230957,13.063352 47.230957,13.8757814 C47.230957,14.6165258 47.0278527,15.2318124 46.621638,15.7216595 C46.2154233,16.2115066 45.6449392,16.5788865 44.9101685,16.82381 C44.1753978,17.0687336 43.3062308,17.1911935 42.3026416,17.1911935 C40.6777828,17.1911935 39.5069462,16.9880892 38.7900968,16.5818746 C38.0732473,16.1756599 37.714828,15.6260835 37.714828,14.933129 C37.714828,14.4313344 37.9179323,14.0251258 38.324147,13.714491 C38.5794479,13.5192609 38.9409272,13.3806624 39.40859,13.2986943 L39.40859,13.2986943 Z M42.3205627,15.2198674 C42.8940423,15.2198674 43.3689479,15.1810386 43.7452939,15.1033799 C44.1216399,15.0257212 44.4053885,14.9181954 44.5965484,14.7807993 C44.7877082,14.6434031 44.8832867,14.4851013 44.8832867,14.3058889 C44.8832867,14.1266765 44.8175765,13.9862956 44.6861541,13.8847419 C44.5547317,13.7831883 44.3157855,13.7324122 43.9693082,13.7324122 L40.7614229,13.7324122 C40.5344206,13.7324122 40.3522241,13.7921487 40.214828,13.9116237 C40.0774318,14.0310986 40.0087348,14.18044 40.0087348,14.3596523 C40.0087348,14.6344446 40.2118391,14.8465094 40.6180538,14.995853 C41.0242685,15.1451967 41.5917658,15.2198674 42.3205627,15.2198674 Z M42.4280896,4.19836201 C43.3360989,4.19836201 44.1126742,4.31783513 44.7578387,4.55678495 C45.4030032,4.79573477 45.8958298,5.13921998 46.2363333,5.5872509 C46.5768368,6.03528181 46.747086,6.58784498 46.747086,7.24495699 C46.747086,7.89012151 46.5768368,8.43969785 46.2363333,8.89370251 C45.8958298,9.34770717 45.4030032,9.69119238 44.7578387,9.92416846 C44.1126742,10.1571445 43.3360989,10.2736308 42.4280896,10.2736308 C41.0063382,10.2736308 39.9280933,10.01079 39.1933226,9.48510036 C38.4585519,8.95941075 38.091172,8.21270376 38.091172,7.24495699 C38.091172,6.58784498 38.2614212,6.03528181 38.6019247,5.5872509 C38.9424282,5.13921998 39.4352548,4.79573477 40.0804194,4.55678495 C40.7255839,4.31783513 41.5081328,4.19836201 42.4280896,4.19836201 Z M42.4280896,5.93671326 C42.0338224,5.93671326 41.7142318,6.05021272 41.4693082,6.27721505 C41.2243847,6.50421738 41.1019247,6.8267948 41.1019247,7.24495699 C41.1019247,7.65117168 41.2243847,7.96777545 41.4693082,8.19477778 C41.7142318,8.42178011 42.0338224,8.53527957 42.4280896,8.53527957 C42.8104093,8.53527957 43.1270131,8.42178011 43.3779104,8.19477778 C43.6288077,7.96777545 43.7542545,7.65117168 43.7542545,7.24495699 C43.7542545,6.8267948 43.6288077,6.50421738 43.3779104,6.27721505 C43.1270131,6.05021272 42.8104093,5.93671326 42.4280896,5.93671326 Z M51.8187706,4.19836201 C52.7626224,4.19836201 53.5899737,4.38055851 54.3008495,4.74495699 C55.0117252,5.10935547 55.5672752,5.64101084 55.9675161,6.33993907 C56.3677571,7.03886729 56.5678746,7.87816595 56.5678746,8.85786022 C56.5678746,9.83755448 56.3677571,10.6768531 55.9675161,11.3757814 C55.5672752,12.0747096 55.0117252,12.606365 54.3008495,12.9707634 C53.5899737,13.3351619 52.7626224,13.5173584 51.8187706,13.5173584 C50.8988138,13.5173584 50.0804229,13.3351619 49.3635735,12.9707634 C48.646724,12.606365 48.0881872,12.0747096 47.6879462,11.3757814 C47.2877053,10.6768531 47.0875878,9.83755448 47.0875878,8.85786022 C47.0875878,7.87816595 47.2877053,7.03886729 47.6879462,6.33993907 C48.0881872,5.64101084 48.646724,5.10935547 49.3635735,4.74495699 C50.0804229,4.38055851 50.8988138,4.19836201 51.8187706,4.19836201 Z M51.8187706,6.36682079 C51.4722934,6.36682079 51.1736106,6.45045197 50.9227133,6.61771685 C50.6718159,6.78498172 50.480659,7.05379624 50.3492366,7.42416846 C50.2178142,7.79454068 50.1521039,8.27243315 50.1521039,8.85786022 C50.1521039,9.44328728 50.2178142,9.91819292 50.3492366,10.2825914 C50.480659,10.6469899 50.6718159,10.9158044 50.9227133,11.089043 C51.1736106,11.2622816 51.4722934,11.3488996 51.8187706,11.3488996 C52.1771953,11.3488996 52.4818518,11.2622816 52.7327491,11.089043 C52.9836464,10.9158044 53.1748034,10.6469899 53.3062258,10.2825914 C53.4376482,9.91819292 53.5033584,9.44328728 53.5033584,8.85786022 C53.5033584,8.27243315 53.4376482,7.79454068 53.3062258,7.42416846 C53.1748034,7.05379624 52.9836464,6.78498172 52.7327491,6.61771685 C52.4818518,6.45045197 52.1771953,6.36682079 51.8187706,6.36682079 Z M58.6108853,10.2557097 C59.1724174,10.2557097 59.6114811,10.3990774 59.9280896,10.6858172 C60.2446981,10.972557 60.403,11.3727919 60.403,11.8865341 C60.403,12.3883287 60.2446981,12.78259 59.9280896,13.0693297 C59.6114811,13.3560695 59.1724174,13.4994373 58.6108853,13.4994373 C58.0613007,13.4994373 57.6252238,13.3560695 57.3026416,13.0693297 C56.9800593,12.78259 56.8187706,12.3883287 56.8187706,11.8865341 C56.8187706,11.3727919 56.9800593,10.972557 57.3026416,10.6858172 C57.6252238,10.3990774 58.0613007,10.2557097 58.6108853,10.2557097 Z" id="rodrigo." fill="#000000" fill-rule="nonzero"></path>
    </g>
</svg>