<svg width="60" height="60" viewBox="0 0 60 60" fill="none" xmlns="http://www.w3.org/2000/svg">
<circle cx="30" cy="30" r="30" fill="#060606"/>
<path d="M17.0222 31.3045C17.0898 31.3157 17.1575 31.3214 17.2251 31.3214C17.3039 31.3214 17.3828 31.3214 17.4617 31.3214C18.442 31.3214 19.366 31.1129 20.2336 30.696C21.1125 30.2678 21.8788 29.7269 22.5323 29.0734C23.1858 28.4198 23.6985 27.6931 24.0704 26.893C24.4535 26.093 24.6451 25.3155 24.6451 24.5605C24.6451 24.0197 24.5436 23.507 24.3408 23.0225C24.1493 22.5379 23.8394 22.1154 23.4112 21.7548C22.9943 21.3942 22.4534 21.1069 21.7886 20.8928C21.1351 20.6787 20.3519 20.5717 19.4392 20.5717C18.4138 20.5717 17.5293 20.6674 16.7856 20.859C16.0532 21.0506 15.4165 21.2985 14.8757 21.6027C14.3461 21.9069 13.8954 22.2562 13.5235 22.6506C13.1629 23.045 12.8474 23.4506 12.577 23.8676C12.3178 24.2845 12.0812 24.6901 11.8671 25.0845C11.653 25.4789 11.4277 25.8282 11.191 26.1324C10.9657 26.4367 10.7121 26.6846 10.4304 26.8761C10.1487 27.0677 9.79943 27.1635 9.38251 27.1635C8.81911 27.1635 8.39656 27.0226 8.11486 26.7409C7.83316 26.4479 7.69231 26.0423 7.69231 25.524C7.69231 25.0394 7.82189 24.5155 8.08105 23.9521C8.35149 23.3887 8.72897 22.8253 9.21349 22.2619C9.70928 21.6985 10.3121 21.1576 11.022 20.6393C11.7319 20.1097 12.5263 19.6477 13.4052 19.2533C14.2954 18.8477 15.2644 18.5265 16.3123 18.2899C17.3603 18.042 18.4702 17.918 19.6421 17.918C20.7914 17.918 21.89 18.0645 22.9379 18.3575C23.9971 18.6505 24.9324 19.0899 25.7437 19.6759C26.555 20.2505 27.1973 20.9773 27.6705 21.8562C28.155 22.7351 28.3973 23.7605 28.3973 24.9324C28.3973 25.7212 28.2508 26.4761 27.9579 27.1973C27.6762 27.9072 27.293 28.5776 26.8085 29.2086C26.324 29.8284 25.755 30.403 25.1014 30.9326C24.4591 31.4509 23.7718 31.9129 23.0394 32.3186C22.3069 32.7242 21.552 33.0679 20.7745 33.3496C20.0083 33.6313 19.2646 33.8341 18.5434 33.9581C18.6448 34.4877 18.8082 35.0849 19.0336 35.7497C19.2702 36.4032 19.5519 37.0286 19.8787 37.6258C20.2167 38.2118 20.5886 38.7132 20.9942 39.1301C21.3999 39.547 21.828 39.7724 22.2788 39.8062C22.3689 39.8175 22.4534 39.8231 22.5323 39.8231C22.6112 39.8231 22.6901 39.8231 22.7689 39.8231C23.5915 39.8231 24.3239 39.6879 24.9662 39.4174C25.6085 39.147 26.1437 38.8484 26.5719 38.5216C27.079 38.1498 27.5184 37.716 27.8902 37.2202C28.2396 36.8258 28.5945 36.6286 28.9551 36.6286C29.1804 36.6286 29.372 36.7075 29.5297 36.8652C29.6875 37.023 29.7664 37.2371 29.7664 37.5075C29.7664 37.7667 29.6819 38.0709 29.5128 38.4202C29.3551 38.7583 29.079 39.1132 28.6846 39.4851C27.524 40.5781 26.386 41.3781 25.2704 41.8851C24.1662 42.3809 23.1182 42.6288 22.1267 42.6288C21.3154 42.6288 20.566 42.3978 19.8787 41.9359C19.1913 41.4739 18.566 40.8485 18.0026 40.0597C17.4392 39.271 16.9265 38.3526 16.4645 37.3047C16.0025 36.2455 15.5912 35.13 15.2306 33.9581C15.0278 34.4201 14.8193 34.9666 14.6052 35.5976C14.3911 36.2173 14.1602 36.8596 13.9123 37.5244C13.6644 38.1892 13.4052 38.8484 13.1348 39.502C12.8643 40.1442 12.5657 40.7245 12.239 41.2429C11.9122 41.7499 11.5629 42.1612 11.191 42.4767C10.8192 42.7922 10.4135 42.95 9.97408 42.95C9.61351 42.95 9.32054 42.8936 9.09518 42.781C8.86982 42.6683 8.69516 42.5274 8.57121 42.3584C8.44726 42.1894 8.35712 42.0035 8.30078 41.8006C8.25571 41.5978 8.23317 41.4063 8.23317 41.226C8.23317 40.9668 8.26698 40.702 8.33458 40.4316C8.40219 40.1611 8.49797 39.9076 8.62192 39.671L13.608 30.5439C14.0362 29.7776 14.4644 29.0396 14.8926 28.3297C15.332 27.6086 15.7546 26.9719 16.1602 26.4198C16.5771 25.8676 16.9659 25.4282 17.3265 25.1014C17.6983 24.7634 18.0307 24.5944 18.3237 24.5944C18.4026 24.5944 18.4983 24.6113 18.611 24.6451C18.7237 24.6676 18.8251 24.7183 18.9153 24.7972C19.0054 24.8648 19.0843 24.9718 19.1519 25.1183C19.2195 25.2535 19.2533 25.4282 19.2533 25.6423C19.2533 25.8564 19.1913 26.155 19.0674 26.5381C18.9434 26.9212 18.78 27.3607 18.5772 27.8564C18.3744 28.3522 18.1378 28.8987 17.8673 29.4959C17.5969 30.0819 17.3152 30.6847 17.0222 31.3045Z" fill="white"/>
<path d="M34.6342 41.5133C34.4651 41.8513 34.2623 42.1499 34.0257 42.4091C33.7891 42.6683 33.5355 42.8824 33.2651 43.0514C32.9947 43.2204 32.7186 43.3444 32.4369 43.4232C32.1552 43.5134 31.8904 43.5584 31.6425 43.5584C31.2819 43.5584 30.9777 43.4627 30.7298 43.2711C30.4819 43.0908 30.3579 42.8204 30.3579 42.4598C30.3579 42.3359 30.3692 42.2006 30.3918 42.0542C30.4256 41.8964 30.4875 41.7274 30.5777 41.5471C31.434 39.778 32.2848 38.0766 33.1299 36.4427C33.9863 34.8088 34.8088 33.282 35.5976 31.8622C36.3976 30.4425 37.1526 29.1523 37.8625 27.9917C38.5723 26.8198 39.2146 25.8226 39.7893 25C40.3752 24.1662 40.871 23.5239 41.2767 23.0732C41.6936 22.6224 41.9978 22.3971 42.1894 22.3971C42.5838 22.3971 42.8767 22.5098 43.0683 22.7351C43.2598 22.9605 43.3556 23.2253 43.3556 23.5295C43.3556 23.7774 43.2936 24.0253 43.1697 24.2732C42.888 24.8479 42.5669 25.5014 42.2063 26.2339C41.857 26.955 41.4851 27.7269 41.0907 28.5494C40.6964 29.3607 40.2851 30.2058 39.8569 31.0847C39.4287 31.9524 39.0062 32.82 38.5892 33.6877C38.1723 34.544 37.761 35.3779 37.3554 36.1892C36.961 36.9892 36.5892 37.7329 36.2399 38.4202C35.9018 39.1076 35.5919 39.7217 35.3102 40.2625C35.0398 40.7921 34.8145 41.2091 34.6342 41.5133ZM54.3927 21.7379C54.3927 21.9407 54.3138 22.2281 54.156 22.5999C54.0095 22.9605 53.7954 23.3154 53.5137 23.6647C53.2433 24.014 52.9109 24.3183 52.5165 24.5775C52.1334 24.8366 51.7052 24.9662 51.232 24.9662C51.1193 24.9662 50.9784 24.9606 50.8094 24.9493C50.6404 24.9268 50.4714 24.8817 50.3024 24.8141C50.1446 24.7465 50.0094 24.6507 49.8967 24.5267C49.784 24.4028 49.7277 24.2394 49.7277 24.0366C49.7277 23.9352 49.7784 23.7943 49.8798 23.614C49.9812 23.4225 50.0883 23.2197 50.2009 23.0056C50.3249 22.7915 50.4376 22.583 50.539 22.3802C50.6404 22.1774 50.6911 22.0083 50.6911 21.8731C50.6911 21.49 50.4207 21.2139 49.8798 21.0449C49.3389 20.8646 48.4319 20.7745 47.1586 20.7745C45.8853 20.8196 44.736 20.8984 43.7106 21.0111C42.6852 21.1125 41.7387 21.2477 40.871 21.4168C40.0034 21.5745 39.1921 21.7604 38.4371 21.9745C37.6822 22.1886 36.9385 22.4196 36.2061 22.6675C35.4736 22.9041 34.7299 23.1633 33.975 23.445C33.2313 23.7154 32.4369 23.9915 31.5918 24.2732C31.5129 24.2957 31.434 24.3183 31.3552 24.3408C31.2876 24.3634 31.2256 24.3746 31.1692 24.3746C30.989 24.3746 30.8256 24.3352 30.6791 24.2563C30.5326 24.1774 30.403 24.0704 30.2903 23.9352C30.1889 23.8 30.1044 23.6478 30.0368 23.4788C29.9805 23.3098 29.9523 23.1351 29.9523 22.9549C29.9523 22.6619 30.1889 22.3351 30.6622 21.9745C31.1354 21.6027 31.7834 21.2308 32.6059 20.859C33.4285 20.4872 34.3975 20.1266 35.5131 19.7773C36.6286 19.4167 37.8287 19.1012 39.1132 18.8308C40.409 18.5491 41.7556 18.3293 43.1528 18.1716C44.5613 18.0026 45.9642 17.918 47.3614 17.918C48.5671 17.918 49.6094 18.0138 50.4883 18.2054C51.3672 18.3969 52.094 18.6617 52.6686 18.9998C53.2433 19.3378 53.6715 19.7435 53.9532 20.2167C54.2349 20.6787 54.3814 21.1858 54.3927 21.7379Z" fill="white"/>
</svg>
