<?xml version="1.0" encoding="UTF-8"?>
<svg width="67px" height="20px" viewBox="0 0 67 20" version="1.1" xmlns="http://www.w3.org/2000/svg" xmlns:xlink="http://www.w3.org/1999/xlink">
    <!-- Generator: Sketch 55.2 (78181) - https://sketchapp.com -->
    <title>rodrigo.</title>
    <desc>Created with Sketch.</desc>
    <g id="Page-1" stroke="none" stroke-width="1" fill="none" fill-rule="evenodd">
        <path d="M6.08007812,4.1015625 C6.13216172,4.1015625 6.17610659,4.10319009 6.21191406,4.10644531 C6.24772153,4.10970054 6.32747334,4.1145833 6.45117188,4.12109375 L6.45117188,6.97265625 C6.27538975,6.9531249 6.11914131,6.9401042 5.98242188,6.93359375 C5.84570244,6.9270833 5.73502646,6.92382812 5.65039062,6.92382812 C4.53059336,6.92382812 3.77864775,7.28840781 3.39453125,8.01757812 C3.17968643,8.42773643 3.07226562,9.05924053 3.07226562,9.91210938 L3.07226562,15 L0.26953125,15 L0.26953125,4.35546875 L2.92578125,4.35546875 L2.92578125,6.2109375 C3.3554709,5.50129854 3.72981611,5.01627734 4.04882812,4.75585938 C4.56966406,4.31965928 5.24674062,4.1015625 6.08007812,4.1015625 Z M11.8574219,13.0371094 C12.671228,13.0371094 13.2962218,12.7473987 13.7324219,12.1679688 C14.168622,11.5885388 14.3867188,10.7649793 14.3867188,9.69726562 C14.3867188,8.62955195 14.168622,7.80762007 13.7324219,7.23144531 C13.2962218,6.65527056 12.671228,6.3671875 11.8574219,6.3671875 C11.0436157,6.3671875 10.4169944,6.65527056 9.97753906,7.23144531 C9.53808374,7.80762007 9.31835938,8.62955195 9.31835938,9.69726562 C9.31835938,10.7649793 9.53808374,11.5885388 9.97753906,12.1679688 C10.4169944,12.7473987 11.0436157,13.0371094 11.8574219,13.0371094 Z M17.3066406,9.69726562 C17.3066406,11.2597734 16.8574264,12.5960231 15.9589844,13.7060547 C15.0605424,14.8160863 13.6966237,15.3710938 11.8671875,15.3710938 C10.0377513,15.3710938 8.67383262,14.8160863 7.77539062,13.7060547 C6.87694863,12.5960231 6.42773438,11.2597734 6.42773438,9.69726562 C6.42773438,8.16079961 6.87694863,6.82943271 7.77539062,5.703125 C8.67383262,4.57681729 10.0377513,4.01367188 11.8671875,4.01367188 C13.6966237,4.01367188 15.0605424,4.57681729 15.9589844,5.703125 C16.8574264,6.82943271 17.3066406,8.16079961 17.3066406,9.69726562 Z M22.2246094,4.1015625 C22.8691438,4.1015625 23.4420548,4.24316265 23.9433594,4.52636719 C24.444664,4.80957173 24.8515609,5.20182041 25.1640625,5.703125 L25.1640625,0.625 L27.9863281,0.625 L27.9863281,15 L25.28125,15 L25.28125,13.5253906 C24.8841126,14.1569042 24.4316432,14.615884 23.9238281,14.9023438 C23.4160131,15.1888035 22.784509,15.3320312 22.0292969,15.3320312 C20.7858011,15.3320312 19.7392621,14.8291066 18.8896484,13.8232422 C18.0400348,12.8173778 17.6152344,11.5267006 17.6152344,9.95117188 C17.6152344,8.13475654 18.0335245,6.70573437 18.8701172,5.6640625 C19.7067099,4.62239063 20.8248628,4.1015625 22.2246094,4.1015625 Z M22.8300781,12.9882812 C23.6178425,12.9882812 24.2167948,12.6953154 24.6269531,12.109375 C25.0371114,11.5234346 25.2421875,10.7649786 25.2421875,9.83398438 C25.2421875,8.53189453 24.9134147,7.60091426 24.2558594,7.04101562 C23.8522115,6.70247227 23.3834662,6.53320312 22.8496094,6.53320312 C22.0358032,6.53320312 21.4384785,6.84081724 21.0576172,7.45605469 C20.6767559,8.07129214 20.4863281,8.83463086 20.4863281,9.74609375 C20.4863281,10.7291716 20.6800111,11.5152965 21.0673828,12.1044922 C21.4547545,12.6936878 22.0423138,12.9882812 22.8300781,12.9882812 Z M35.296875,4.1015625 C35.3489586,4.1015625 35.3929035,4.10319009 35.4287109,4.10644531 C35.4645184,4.10970054 35.5442702,4.1145833 35.6679688,4.12109375 L35.6679688,6.97265625 C35.4921866,6.9531249 35.3359382,6.9401042 35.1992188,6.93359375 C35.0624993,6.9270833 34.9518233,6.92382812 34.8671875,6.92382812 C33.7473902,6.92382812 32.9954446,7.28840781 32.6113281,8.01757812 C32.3964833,8.42773643 32.2890625,9.05924053 32.2890625,9.91210938 L32.2890625,15 L29.4863281,15 L29.4863281,4.35546875 L32.1425781,4.35546875 L32.1425781,6.2109375 C32.5722678,5.50129854 32.946613,5.01627734 33.265625,4.75585938 C33.7864609,4.31965928 34.4635375,4.1015625 35.296875,4.1015625 Z M39.1601562,3.0859375 L36.3378906,3.0859375 L36.3378906,0.517578125 L39.1601562,0.517578125 L39.1601562,3.0859375 Z M36.3378906,4.35546875 L39.1601562,4.35546875 L39.1601562,15 L36.3378906,15 L36.3378906,4.35546875 Z M45.4257812,12.7148438 C46.0768262,12.7148438 46.6269509,12.469078 47.0761719,11.9775391 C47.5253929,11.4860001 47.75,10.7031304 47.75,9.62890625 C47.75,8.61978662 47.536786,7.85156514 47.1103516,7.32421875 C46.6839171,6.79687236 46.1126338,6.53320312 45.3964844,6.53320312 C44.419917,6.53320312 43.7460956,6.99218291 43.375,7.91015625 C43.1796865,8.39843994 43.0820312,9.00064746 43.0820312,9.71679688 C43.0820312,10.3352896 43.1861969,10.8854143 43.3945312,11.3671875 C43.7721373,12.2656295 44.4492139,12.7148438 45.4257812,12.7148438 Z M44.7324219,4.1015625 C45.2662787,4.1015625 45.7317688,4.18294189 46.1289062,4.34570312 C46.805993,4.62565244 47.3528625,5.13997021 47.7695312,5.88867188 L47.7695312,4.35546875 L50.4746094,4.35546875 L50.4746094,14.453125 C50.4746094,15.8268298 50.2434919,16.8619757 49.78125,17.5585938 C48.9869752,18.7565164 47.4635529,19.3554688 45.2109375,19.3554688 C43.8502536,19.3554688 42.7402387,19.0885443 41.8808594,18.5546875 C41.0214801,18.0208307 40.5462244,17.2233126 40.4550781,16.1621094 L43.4824219,16.1621094 C43.5605473,16.4876318 43.6874991,16.7220045 43.8632812,16.8652344 C44.1627619,17.1191419 44.6673142,17.2460938 45.3769531,17.2460938 C46.3795623,17.2460938 47.0501285,16.9108106 47.3886719,16.2402344 C47.6100271,15.8105447 47.7207031,15.0878957 47.7207031,14.0722656 L47.7207031,13.3886719 C47.4537747,13.8444033 47.1673192,14.1861968 46.8613281,14.4140625 C46.3079399,14.8372417 45.5885461,15.0488281 44.703125,15.0488281 C43.3359307,15.0488281 42.2438192,14.5686897 41.4267578,13.6083984 C40.6096964,12.6481072 40.2011719,11.3476645 40.2011719,9.70703125 C40.2011719,8.12499209 40.5950481,6.79525278 41.3828125,5.71777344 C42.1705769,4.64029409 43.2871021,4.1015625 44.7324219,4.1015625 Z M56.8476562,13.0371094 C57.6614624,13.0371094 58.2864562,12.7473987 58.7226562,12.1679688 C59.1588563,11.5885388 59.3769531,10.7649793 59.3769531,9.69726562 C59.3769531,8.62955195 59.1588563,7.80762007 58.7226562,7.23144531 C58.2864562,6.65527056 57.6614624,6.3671875 56.8476562,6.3671875 C56.0338501,6.3671875 55.4072288,6.65527056 54.9677734,7.23144531 C54.5283181,7.80762007 54.3085938,8.62955195 54.3085938,9.69726562 C54.3085938,10.7649793 54.5283181,11.5885388 54.9677734,12.1679688 C55.4072288,12.7473987 56.0338501,13.0371094 56.8476562,13.0371094 Z M62.296875,9.69726562 C62.296875,11.2597734 61.8476607,12.5960231 60.9492188,13.7060547 C60.0507768,14.8160863 58.6868581,15.3710938 56.8574219,15.3710938 C55.0279856,15.3710938 53.664067,14.8160863 52.765625,13.7060547 C51.867183,12.5960231 51.4179688,11.2597734 51.4179688,9.69726562 C51.4179688,8.16079961 51.867183,6.82943271 52.765625,5.703125 C53.664067,4.57681729 55.0279856,4.01367188 56.8574219,4.01367188 C58.6868581,4.01367188 60.0507768,4.57681729 60.9492188,5.703125 C61.8476607,6.82943271 62.296875,8.16079961 62.296875,9.69726562 Z M63.2402344,12.0898438 L66.1992188,12.0898438 L66.1992188,15 L63.2402344,15 L63.2402344,12.0898438 Z" id="rodrigo." fill="#FF3333" fill-rule="nonzero"></path>
    </g>
</svg>